<svg xmlns="http://www.w3.org/2000/svg" width="760" height="210" viewBox="0 0 760 210" role="img" aria-label="F-A4 banking flow">
  <style>
    text { font-family: ui-monospace, SFMono-Regular, Menlo, monospace; font-size: 13px; fill: #172026; }
    rect { fill: #f7fbff; stroke: #315f7d; stroke-width: 1.5; rx: 4; }
    path { stroke: #315f7d; stroke-width: 1.5; fill: none; marker-end: url(#arrow); }
  </style>
  <defs>
    <marker id="arrow" markerWidth="8" markerHeight="8" refX="7" refY="4" orient="auto">
      <path d="M0,0 L8,4 L0,8 Z" fill="#315f7d"/>
    </marker>
  </defs>
  <rect x="20" y="30" width="190" height="36"/>
  <text x="32" y="53">ValidatedBankLeaseSpec</text>
  <rect x="255" y="30" width="170" height="36"/>
  <text x="267" y="53">lease_rom_switchable</text>
  <rect x="470" y="30" width="100" height="36"/>
  <text x="486" y="53">BankGuard</text>
  <rect x="615" y="30" width="120" height="36"/>
  <text x="630" y="53">release_bank</text>
  <rect x="255" y="125" width="170" height="36"/>
  <text x="267" y="148">PreLayoutOp::Lease</text>
  <rect x="470" y="125" width="185" height="36"/>
  <text x="482" y="148">BankingPreLayoutLowering</text>
  <rect x="680" y="125" width="60" height="36"/>
  <text x="693" y="148">bytes</text>
  <path d="M210,48 H255"/>
  <path d="M425,48 H470"/>
  <path d="M570,48 H615"/>
  <path d="M340,66 V125"/>
  <path d="M675,66 V104 H545 V125"/>
  <path d="M425,143 H470"/>
  <path d="M655,143 H680"/>
</svg>
